
        <svg xmlns="http://www.w3.org/2000/svg" xmlns:xlink="http://www.w3.org/1999/xlink" version="1.1" width="3162.27312717912" height="729.4692061742794" viewBox="0 0 3162.27312717912 729.4692061742794">
			
			<g transform="scale(8.113656358955978) translate(10, 10)">
				<defs id="SvgjsDefs1001"/><g id="SvgjsG1007" featureKey="symbolFeature-0" transform="matrix(0.4369146703886159,0,0,0.4369146703886159,-5.511242625633165,-2.1845733519430794)" fill="#fff"><path xmlns="http://www.w3.org/2000/svg" d="M125.658,74.049c3.373,3.105,7.843,5.017,12.758,5.017c10.46,0,18.97-8.588,18.97-19.145s-8.51-19.145-18.97-19.145  c-10.461,0-18.971,8.588-18.971,19.145c0,1.879,0.281,3.691,0.783,5.408l-3.689,3.705l-3.841-31.817  c5.472-2.213,9.352-7.606,9.352-13.905c0-8.262-6.667-14.984-14.861-14.984S92.327,15.05,92.327,23.312  c0,6.674,4.352,12.338,10.343,14.271l4.886,40.472L92.073,93.605V43.458L81.4,27.107c1.778-2.321,2.847-5.219,2.847-8.371  C84.247,11.162,78.134,5,70.619,5S56.99,11.162,56.99,18.736s6.114,13.736,13.629,13.736c0.755,0,1.491-0.078,2.213-0.198  l9.241,14.157v6.492L48.033,39.26c-0.568-7.974-7.166-14.291-15.216-14.291c-8.421,0-15.272,6.908-15.272,15.4  s6.852,15.4,15.272,15.4c5.251,0,9.89-2.687,12.639-6.768l36.616,14.698v43.358H67.589l-1.186-20.703  c5.154-2.097,8.804-7.184,8.804-13.121c0-7.804-6.298-14.152-14.04-14.152c-7.741,0-14.039,6.349-14.039,14.152  c0,6.113,3.872,11.317,9.268,13.292l1.176,20.531H45.948c-1.803-7.466-8.47-13.031-16.418-13.031  c-9.327,0-16.916,7.655-16.916,17.064s7.589,17.064,16.916,17.064c7.244,0,13.421-4.627,15.827-11.098h36.716V165h10v-57.223  l9.649-9.69l8.873,9.857c-1.168,2.176-1.833,4.664-1.833,7.307c0,8.492,6.851,15.4,15.271,15.4s15.272-6.909,15.272-15.4  s-6.852-15.4-15.272-15.4c-2.171,0-4.234,0.466-6.105,1.293l-9.14-10.154L125.658,74.049z M107.188,18.328  c2.681,0,4.861,2.236,4.861,4.984s-2.181,4.984-4.861,4.984s-4.861-2.236-4.861-4.984S104.508,18.328,107.188,18.328z M66.99,18.736  c0-2.06,1.628-3.736,3.629-3.736c2,0,3.628,1.676,3.628,3.736s-1.628,3.736-3.628,3.736C68.618,22.473,66.99,20.796,66.99,18.736z   M32.817,45.769c-2.907,0-5.272-2.423-5.272-5.4s2.365-5.4,5.272-5.4c2.906,0,5.271,2.422,5.271,5.4S35.724,45.769,32.817,45.769z   M61.168,69.082c2.228,0,4.04,1.863,4.04,4.152s-1.812,4.152-4.04,4.152s-4.039-1.862-4.039-4.152S58.94,69.082,61.168,69.082z   M29.53,118.155c-3.813,0-6.916-3.169-6.916-7.064s3.103-7.064,6.916-7.064c3.812,0,6.915,3.169,6.915,7.064  S33.343,118.155,29.53,118.155z M129.307,115.251c0,2.978-2.365,5.4-5.272,5.4c-2.906,0-5.271-2.422-5.271-5.4s2.365-5.4,5.271-5.4  C126.941,109.851,129.307,112.273,129.307,115.251z M138.416,50.777c4.946,0,8.97,4.102,8.97,9.145s-4.023,9.145-8.97,9.145  s-8.971-4.102-8.971-9.145S133.47,50.777,138.416,50.777z"/></g><g id="SvgjsG1008" featureKey="nameFeature-0" transform="matrix(0.6951779517297847,0,0,0.6951779517297847,81.19253706031321,3.04716452391954)" fill="#fff"><path d="M23.24 16.96 l-15.28 0 l0 6.4 l13.24 0 l0 4.8 l-13.24 0 l0 6.88 l15.24 0 l0 4.96 l-20.6 0 l0 -28 l20.64 0 l0 4.96 z M52.07 40 l-6.6 0 l-7.12 -9.96 l-7.12 9.96 l-6.64 0 l10.08 -14.08 l-9.84 -13.92 l6.64 0 l6.88 9.76 l6.88 -9.76 l6.6 0 l-9.8 13.92 z M67.34 12 c6.16 0 9.72 5.08 9.72 9.72 c0 4.72 -3.52 9.72 -9.96 9.72 l-7.44 0 l0 8.56 l-5.44 0 l0 -28 l13.12 0 z M66.94 26.56 c2.96 0 4.8 -2.36 4.8 -4.8 c0 -2.48 -1.88 -4.8 -4.56 -4.8 l-7.52 0 l0 9.6 l7.28 0 z M100.05 40 l-2.28 -6.08 l-12.6 0 l-2.32 6.08 l-5.68 0 l10.72 -28 l7.12 0 l10.76 28 l-5.72 0 z M86.97 29.08 l8.96 0 l-4.48 -11.84 z M129.92 12 l0 4.96 l-9.4 0 l0 23.04 l-5.48 0 l0 -23.04 l-9.4 0 l0 -4.96 l24.28 0 z M143.71 40.56 c-6.84 0 -11.36 -4.12 -12.92 -8.48 l5.24 -1.6 c1.12 2.92 3.96 5.24 8 5.24 c3.28 0 5.32 -1.68 5.32 -3.52 c0 -1.48 -1 -2.48 -3.68 -3.36 l-7.16 -2.24 c-3.68 -1.16 -6.36 -3.52 -6.32 -7.12 c-0.04 -4.36 4.2 -8.04 10.04 -8.04 c6.04 0 10.52 3.32 12.04 7.2 l-5.08 1.48 c-1.16 -2.28 -3.76 -3.84 -6.92 -3.84 c-2.76 0 -4.52 1.4 -4.52 3.04 c0 1.24 0.84 2.08 2.68 2.64 l6.96 2.24 c4.28 1.32 7.52 3.12 7.52 7.68 c0 4.8 -4.48 8.68 -11.2 8.68 z M198.61 12 l5.76 0 l-8.48 28 l-5.8 0 l-5.52 -18.8 l-5.52 18.8 l-5.8 0 l-8.52 -28 l5.76 0 l5.76 20.28 l5.84 -20.28 l4.92 0 l5.84 20.28 z M206.32 40 l0 -28 l5.56 0 l0 28 l-5.56 0 z M238.51 12 l0 4.96 l-9.4 0 l0 23.04 l-5.48 0 l0 -23.04 l-9.4 0 l0 -4.96 l24.28 0 z M259.14 12 l5.52 0 l0 28 l-5.52 0 l0 -11.76 l-12.8 0 l0 11.76 l-5.48 0 l0 -28 l5.48 0 l0 11.28 l12.8 0 l0 -11.28 z M295.76 40 l-6.36 -9.8 l-5.96 0 l0 9.8 l-5.44 0 l0 -28 l13.64 0 c6.08 0 9.6 4.68 9.6 9.12 c0 3.68 -2.16 7.16 -6.12 8.52 l6.96 10.36 l-6.32 0 z M283.44 16.92 l0 8.48 l7.84 0 c2.84 0 4.64 -1.96 4.64 -4.28 c0 -2.24 -1.84 -4.2 -4.44 -4.2 l-8.04 0 z M318.51 40.56 c-8.48 0 -14.72 -6.32 -14.72 -14.6 c0 -8.24 6.24 -14.52 14.72 -14.52 c8.44 0 14.68 6.28 14.68 14.52 c0 8.28 -6.24 14.6 -14.68 14.6 z M318.51 35.48 c5.52 0 9.16 -4.16 9.16 -9.52 c0 -5.24 -3.64 -9.44 -9.16 -9.44 c-5.56 0 -9.16 4.2 -9.16 9.44 c0 5.36 3.6 9.52 9.16 9.52 z M349.94 40.56 c-8.48 0 -14.72 -6.32 -14.72 -14.6 c0 -8.24 6.24 -14.52 14.72 -14.52 c8.44 0 14.68 6.28 14.68 14.52 c0 8.28 -6.24 14.6 -14.68 14.6 z M349.94 35.48 c5.52 0 9.16 -4.16 9.16 -9.52 c0 -5.24 -3.64 -9.44 -9.16 -9.44 c-5.56 0 -9.16 4.2 -9.16 9.44 c0 5.36 3.6 9.52 9.16 9.52 z M390.09 12 l0 4.96 l-9.4 0 l0 23.04 l-5.48 0 l0 -23.04 l-9.4 0 l0 -4.96 l24.28 0 z M403.88 40.56 c-6.84 0 -11.36 -4.12 -12.92 -8.48 l5.24 -1.6 c1.12 2.92 3.96 5.24 8 5.24 c3.28 0 5.32 -1.68 5.32 -3.52 c0 -1.48 -1 -2.48 -3.68 -3.36 l-7.16 -2.24 c-3.68 -1.16 -6.36 -3.52 -6.32 -7.12 c-0.04 -4.36 4.2 -8.04 10.04 -8.04 c6.04 0 10.52 3.32 12.04 7.2 l-5.08 1.48 c-1.16 -2.28 -3.76 -3.84 -6.92 -3.84 c-2.76 0 -4.52 1.4 -4.52 3.04 c0 1.24 0.84 2.08 2.68 2.64 l6.96 2.24 c4.28 1.32 7.52 3.12 7.52 7.68 c0 4.8 -4.48 8.68 -11.2 8.68 z"/></g><g id="SvgjsG1009" featureKey="sloganFeature-0" transform="matrix(0.6059748804450475,0,0,0.6059748804450475,82.47923975921486,47.549967522355026)" fill="#fff"><path d="M7.929688 20.195313 c-4.072266 0 -7.070312 -2.8125 -7.070312 -7.216797 c0 -4.462891 3.066406 -7.285156 7.216797 -7.285156 c2.724609 0 4.980469 1.201172 6.210938 3.320313 l-2.568359 1.367188 c-0.742187 -1.445312 -2.070312 -2.138672 -3.642578 -2.138672 c-2.441406 0 -4.277344 1.679688 -4.277344 4.667969 c0 2.880859 1.71875 4.736328 4.384766 4.736328 c1.806641 0 3.466797 -0.898437 3.867188 -2.958984 l-3.857422 0 l0 -2.353516 l6.630859 0 l0 7.666016 l-2.304687 0 l0 -1.953125 c-0.908203 1.337891 -2.431641 2.148438 -4.589844 2.148438 z M23.1958 17.412109 l4.423828 0 l0 2.587891 l-7.353516 0 l0 -14.111328 l2.929688 0 l0 11.523438 z M38.510742 20.195313 c-4.150391 0 -7.216797 -2.832031 -7.216797 -7.255859 c0 -4.433594 3.066406 -7.246094 7.216797 -7.246094 c4.140625 0 7.207031 2.8125 7.207031 7.246094 c0 4.423828 -3.066406 7.255859 -7.207031 7.255859 z M38.510742 17.509766 c2.431641 0 4.296875 -1.708984 4.296875 -4.570312 c0 -2.851562 -1.865234 -4.550781 -4.296875 -4.550781 s-4.296875 1.699219 -4.296875 4.550781 c0 2.861328 1.865234 4.570313 4.296875 4.570313 z M58.395996 12.548828 c1.591797 0.439453 2.65625 1.484375 2.65625 3.496094 c0 2.382813 -1.445312 3.955078 -4.423828 3.955078 l-5.810547 0 l0 -14.111328 l4.570313 0 c3.046875 0 4.648438 1.464844 4.648438 3.867188 c0 1.240234 -0.537109 2.255859 -1.640625 2.792969 z M55.41748 8.320313 l-1.777344 0 l0 3.320313 l1.904297 0 c1.25 0 1.796875 -0.742187 1.796875 -1.699219 c0 -0.9375 -0.615234 -1.621094 -1.923828 -1.621094 z M56.081543 17.490234 c1.582031 0 2.128906 -0.849609 2.128906 -1.767578 c0 -0.9375 -0.537109 -1.826172 -2.1875 -1.826172 l-2.382812 0 l0 3.59375 l2.441406 0 z M75.507812 20 l-1.025391 -2.910156 l-5.927734 0 l-1.025391 2.910156 l-2.998047 0 l5.195313 -14.111328 l3.583984 0 l5.195313 14.111328 l-2.998047 0 z M69.414062 14.638672 l4.208984 0 l-2.099609 -5.986328 z M85.959472 17.412109 l4.423828 0 l0 2.587891 l-7.353516 0 l0 -14.111328 l2.929688 0 l0 11.523438 z M110.808106 5.888672 l0 2.578125 l-3.349609 0 l0 11.533203 l-2.900391 0 l0 -11.533203 l-3.369141 0 l0 -2.578125 l9.619141 0 z M124.873047 20 l-1.025391 -2.910156 l-5.927734 0 l-1.025391 2.910156 l-2.998047 0 l5.195313 -14.111328 l3.583984 0 l5.195313 14.111328 l-2.998047 0 z M118.779297 14.638672 l4.208984 0 l-2.099609 -5.986328 z M135.324707 17.412109 l4.423828 0 l0 2.587891 l-7.353516 0 l0 -14.111328 l2.929688 0 l0 11.523438 z M152.573243 8.466797 l-5.234375 0 l0 3.203125 l4.638672 0 l0 2.548828 l-4.638672 0 l0 3.193359 l5.234375 0 l0 2.587891 l-8.183594 0 l0 -14.111328 l8.183594 0 l0 2.578125 z M167.634278 5.888672 l2.919922 0 l0 14.111328 l-3.388672 0 l-6.25 -10.087891 l0 10.087891 l-2.919922 0 l0 -14.111328 l3.349609 0 l6.289063 10.029297 l0 -10.029297 z M184.794922 5.888672 l0 2.578125 l-3.349609 0 l0 11.533203 l-2.900391 0 l0 -11.533203 l-3.369141 0 l0 -2.578125 l9.619141 0 z M190.803223 20.195313 c-0.869141 0 -1.601562 -0.722656 -1.601562 -1.601562 s0.732422 -1.621094 1.601563 -1.621094 c0.888672 0 1.621094 0.742188 1.621094 1.621094 s-0.732422 1.601563 -1.621094 1.601563 z M208.796386 17.412109 l4.423828 0 l0 2.587891 l-7.353516 0 l0 -14.111328 l2.929688 0 l0 11.523438 z M224.111328 20.195313 c-4.150391 0 -7.216797 -2.832031 -7.216797 -7.255859 c0 -4.433594 3.066406 -7.246094 7.216797 -7.246094 c4.140625 0 7.207031 2.8125 7.207031 7.246094 c0 4.423828 -3.066406 7.255859 -7.207031 7.255859 z M224.111328 17.509766 c2.431641 0 4.296875 -1.708984 4.296875 -4.570312 c0 -2.851562 -1.865234 -4.550781 -4.296875 -4.550781 s-4.296875 1.699219 -4.296875 4.550781 c0 2.861328 1.865234 4.570313 4.296875 4.570313 z M242.668457 20.195313 c-4.150391 0 -7.216797 -2.822266 -7.216797 -7.255859 s3.066406 -7.246094 7.216797 -7.246094 c3.144531 0 5.664063 1.611328 6.669922 4.287109 l-2.734375 0.996094 c-0.625 -1.640625 -2.119141 -2.587891 -3.935547 -2.587891 c-2.431641 0 -4.296875 1.699219 -4.296875 4.550781 s1.865234 4.560547 4.296875 4.560547 c1.816406 0 3.310547 -0.957031 3.935547 -2.597656 l2.734375 0.996094 c-1.005859 2.675781 -3.525391 4.296875 -6.669922 4.296875 z M263.588867 20 l-1.025391 -2.910156 l-5.927734 0 l-1.025391 2.910156 l-2.998047 0 l5.195313 -14.111328 l3.583984 0 l5.195313 14.111328 l-2.998047 0 z M257.495117 14.638672 l4.208984 0 l-2.099609 -5.986328 z M274.040527 17.412109 l4.423828 0 l0 2.587891 l-7.353516 0 l0 -14.111328 l2.929688 0 l0 11.523438 z M290.705567 20 l0 -14.111328 l2.929688 0 l0 14.111328 l-2.929687 0 z M315.854492 20 l-2.919922 0 l-0.927734 -10.634766 l-3.574219 10.634766 l-1.894531 0 l-3.574219 -10.634766 l-0.9375 10.634766 l-2.929687 0 l1.181641 -14.111328 l4.179688 0 l3.007813 8.857422 l3.046875 -8.857422 l4.179688 0 z M327.194825 5.888672 c2.763672 0 4.482422 2.050781 4.482422 4.560547 c0 2.568359 -1.71875 4.492188 -4.482422 4.492188 l-2.939453 0 l0 5.058594 l-2.929687 0 l0 -14.111328 l5.869141 0 z M326.706543 12.490234 c1.464844 0 2.148438 -0.810547 2.148438 -2.080078 c0 -1.220703 -0.683594 -2.070312 -2.148437 -2.070312 l-2.451172 0 l0 4.150391 l2.451172 0 z M345.986328 20 l-1.025391 -2.910156 l-5.927734 0 l-1.025391 2.910156 l-2.998047 0 l5.195313 -14.111328 l3.583984 0 l5.195313 14.111328 l-2.998047 0 z M339.892578 14.638672 l4.208984 0 l-2.099609 -5.986328 z M359.758301 20.195313 c-4.150391 0 -7.216797 -2.822266 -7.216797 -7.255859 s3.066406 -7.246094 7.216797 -7.246094 c3.144531 0 5.664063 1.611328 6.669922 4.287109 l-2.734375 0.996094 c-0.625 -1.640625 -2.119141 -2.587891 -3.935547 -2.587891 c-2.431641 0 -4.296875 1.699219 -4.296875 4.550781 s1.865234 4.560547 4.296875 4.560547 c1.816406 0 3.310547 -0.957031 3.935547 -2.597656 l2.734375 0.996094 c-1.005859 2.675781 -3.525391 4.296875 -6.669922 4.296875 z M379.418946 5.888672 l0 2.578125 l-3.349609 0 l0 11.533203 l-2.900391 0 l0 -11.533203 l-3.369141 0 l0 -2.578125 l9.619141 0 z"/></g>
			</g>
		</svg>
	